<svg width="120" height="120" viewBox="0 0 120 120" fill="none" xmlns="http://www.w3.org/2000/svg">
  <rect width="120" height="120" rx="60" fill="#FFF4E8"/>
  <circle cx="60" cy="47" r="22" fill="#F1C27D"/>
  <path d="M30 102c4-20 16-30 30-30s26 10 30 30" fill="#334155"/>
  <path d="M38 43c0-15 10-26 22-26s22 11 22 26" fill="#1F2937"/>
  <path d="M49 47c1-1 2-1.5 3-1.5s2 .5 3 1.5" stroke="#111827" stroke-width="2" stroke-linecap="round"/>
  <path d="M65 47c1-1 2-1.5 3-1.5s2 .5 3 1.5" stroke="#111827" stroke-width="2" stroke-linecap="round"/>
  <path d="M53 56c2 2 4.5 3 7 3s5-1 7-3" stroke="#A16207" stroke-width="2" stroke-linecap="round"/>
</svg>
